# xmcd
#
# Track frame offsets:
#	150
#	12437
#	27450
#	41695
#	56632
#	69222
#	84060
#	96937
#	113125
#	128775
#	145352
#	179975
#
# Disc length: 2423 seconds
#
# Revision: 1
# Processed by: cddbd v1.5.2PL0 Copyright (c) Steve Scherf et al.
# Submitted via: audiograbber 1.83.01
#
DISCID=a609750c
DTITLE=Le Mans - Rebel Action
DYEAR=2006
DGENRE=goth pop
TTITLE0=Forecast
TTITLE1=Bigger
TTITLE2=Rebel Action
TTITLE3=Things To Bend
TTITLE4=Talk
TTITLE5=Self
TTITLE6=Rolling The Stones
TTITLE7=Beautiful
TTITLE8=Love Light
TTITLE9=Dying For Fun
TTITLE10=Crash
TTITLE11=Data Track
EXTD=
EXTT0=
EXTT1=
EXTT2=
EXTT3=
EXTT4=
EXTT5=
EXTT6=
EXTT7=
EXTT8=
EXTT9=
EXTT10=
EXTT11=
PLAYORDER=
